<svg id="Ñëîé_1" data-name="Ñëîé 1" xmlns="http://www.w3.org/2000/svg" xmlns:xlink="http://www.w3.org/1999/xlink" viewBox="0 0 1905.95 1360.28"><defs><style>.cls-1{fill:url(#linear-gradient);}.cls-2{fill:url(#linear-gradient-2);}.cls-3{fill:url(#linear-gradient-3);}.cls-4{fill:url(#linear-gradient-4);}.cls-5{fill:url(#linear-gradient-5);}.cls-6{fill:url(#linear-gradient-6);}.cls-7{fill:url(#linear-gradient-7);}.cls-8{fill:url(#linear-gradient-8);}.cls-9{fill:url(#linear-gradient-9);}.cls-10{fill:url(#linear-gradient-10);}.cls-11{fill:url(#linear-gradient-11);}.cls-12{fill:url(#linear-gradient-12);}.cls-13{fill:url(#linear-gradient-13);}.cls-14{fill:url(#linear-gradient-14);}.cls-15{fill:url(#linear-gradient-15);}.cls-16{fill:url(#linear-gradient-16);}.cls-17{fill:#ddb9a2;}.cls-18{fill:#00376a;}.cls-19{fill:#fff;}.cls-20{fill:#b0c2cc;}.cls-21{fill:#f77b8c;}.cls-22{fill:#204b86;}.cls-23{fill:#f3dcb3;}.cls-24{fill:#406796;}.cls-25{fill:#a0406c;}.cls-26{fill:#b6d8ec;}</style><linearGradient id="linear-gradient" x1="-1342.59" y1="989.74" x2="291.42" y2="2623.75" gradientTransform="translate(395.29 2519.89) rotate(180)" gradientUnits="userSpaceOnUse"><stop offset="0" stop-color="#4b84b3"/><stop offset="0.52" stop-color="#6296bf"/><stop offset="1" stop-color="#b4d6ea"/></linearGradient><linearGradient id="linear-gradient-2" x1="-1539.71" y1="1186.85" x2="94.31" y2="2820.87" xlink:href="#linear-gradient"/><linearGradient id="linear-gradient-3" x1="-1180.49" y1="827.64" x2="453.52" y2="2461.65" xlink:href="#linear-gradient"/><linearGradient id="linear-gradient-4" x1="-1400.04" y1="1047.19" x2="233.97" y2="2681.2" xlink:href="#linear-gradient"/><linearGradient id="linear-gradient-5" x1="-1159.37" y1="806.51" x2="474.65" y2="2440.52" xlink:href="#linear-gradient"/><linearGradient id="linear-gradient-6" x1="-1618.54" y1="1265.69" x2="15.47" y2="2899.7" xlink:href="#linear-gradient"/><linearGradient id="linear-gradient-7" x1="-924.52" y1="1665.07" x2="-924.52" y2="1665.07" xlink:href="#linear-gradient"/><linearGradient id="linear-gradient-8" x1="-1376.73" y1="1023.88" x2="257.28" y2="2657.89" xlink:href="#linear-gradient"/><linearGradient id="linear-gradient-9" x1="-1343.85" y1="990.99" x2="290.17" y2="2625.01" xlink:href="#linear-gradient"/><linearGradient id="linear-gradient-10" x1="-1185.87" y1="833.02" x2="448.14" y2="2467.03" xlink:href="#linear-gradient"/><linearGradient id="linear-gradient-11" x1="-1735.97" y1="1383.12" x2="-101.96" y2="3017.13" xlink:href="#linear-gradient"/><linearGradient id="linear-gradient-12" x1="-1762.36" y1="1409.51" x2="-128.35" y2="3043.52" xlink:href="#linear-gradient"/><linearGradient id="linear-gradient-13" x1="-1629.57" y1="1276.71" x2="4.45" y2="2910.73" xlink:href="#linear-gradient"/><linearGradient id="linear-gradient-14" x1="-1543.99" y1="1191.14" x2="90.02" y2="2825.15" xlink:href="#linear-gradient"/><linearGradient id="linear-gradient-15" x1="-1844.61" y1="1491.75" x2="-210.59" y2="3125.77" xlink:href="#linear-gradient"/><linearGradient id="linear-gradient-16" x1="-1403.21" y1="1050.35" x2="230.8" y2="2684.37" xlink:href="#linear-gradient"/></defs><title>slider-1</title><path class="cls-1" d="M951.27,743.27l.11-.3-1.23.13Z"/><path class="cls-2" d="M1291.46,692.22l.57-4.88Z"/><path class="cls-3" d="M778,894.23c-.31,0-1.75-1.59-1.64-2.17-.48.05-1.34-1.48-1.23-2-.63-.17-1.73-1.51-1.44-1.82l.52-.4L772.78,886l-2.18,1.89,9.62,12,2.31-1.72-2.33-2.91a4.42,4.42,0,0,1-1.12.63c-.41-.12-1.08-1.37-1.09-1.69Z"/><path class="cls-4" d="M1114.65,791.15l-1.94,1.65,2.23-1.35,1.07-.79Z"/><path class="cls-5" d="M916.19,951.73l-50.36,79-51.27,82.79L939,1076.17l48.47-70.24-71.28-54.2Z"/><path class="cls-6" d="M1426.63,667.09l1.4,1.22-1.39-1.23Z"/><path class="cls-7" d="M1319.81,854.82"/><path class="cls-8" d="M1286.12,867.52l-82.91,31.23L1179.82,935l-41.92,81.41,14.16-4.26,90.68-26.76,63.55-109.68-20.17-8.21Z"/><path class="cls-9" d="M1133.54,789.61l-1.86,3-2.59,3.3c.17.35.27.67.13.8a12.63,12.63,0,0,1-1.52,1l-.92,1.18-1.69.35c-4.83,2.78-12.19,6.87-12.19,6.87l-3.89.72-2.09,1-77.26,40.53-47.56-25L954.9,885l-10.25,35.52-8.69-2,8.48,2.14s69.4,82.16,71.45,86.85c1,2.28-22.29,30.84-46.38,59.48l152.79-45.89L1162.78,928l6-16.28,37.52-101.35,1.37-3.71-11.17-.61,33-42.16,7-45.38-50.1,25.86-51,44-5.73-6.1,5.61,6Z"/><path class="cls-10" d="M784,892.59l1.94-1,1.45-1.48s-1.67,1.25-3.51,2.59Z"/><path class="cls-11" d="M1631.38,636.06l-1.92-.26h0Z"/><path class="cls-12" d="M1794.46,495.26s-61.38,63.38-69.29,62.56-51.49-15.39-52.39-15.7l-16.43,59.28h0l-5.54,37.24s59.83,93.54,62.47,98.06c2.14,3.65-44.2,93.49-62.28,128.23l227.45-67.11-76.61-304.46Z"/><path class="cls-13" d="M1625.73,673.63l-41.88,86.44L1516,904.77,1635,869.67l49.41-135.75-58.65-60.29Z"/><path class="cls-14" d="M1744.63,1298.75A160,160,0,0,1,1853,1259.26a143.06,143.06,0,0,1,53,10.8v-139.3l-99.25,64.15Z"/><path class="cls-15" d="M1663.64,452.41l.14.3,1.12-.28Z"/><path class="cls-16" d="M111.21,1320.39c17.11-41,57.74-43.45,102.49-39.08a106,106,0,0,1,8.45-9.64c32.54-32.78,74-27.61,117.17-15.39l452.94-136,53.65-101.75L888.8,901.27l28.4-118.81-7.4,30.88-1.83,7.6L847,845l-50.74,38.49v0l-1.52,1.21-1.86,2.94-4.91,6.08-6.23,1.2,2.11,2.63-.88,5.75,15.41,19.23L754.15,957.9,708,900.28l2.66-2.12,41.51-33.27,15.42,19.25,6.29,1,1.46,1.82c3.38-2.42,10.88-7.69,10.88-7.69l3.1-.89,1.62-1,54.81-50.2,71.46-44.73,34.34-3.14,1.21-1L955,765l-2.6-11.14v0l1.4,6-6.08-11.15,2,3.79-3.79-4.34L950,733.92l22.63-6.4,14.54,2.41,3.21,5.32-3,9,.84,9.8,2.56,8.75-.35.13.36,0-3.63,1.35h0l-1.68,11.35.43,2.17L984,779.76l-4,0L972.92,778l-2.59,6.77,23.79,11.39,20,15,21.79,16.33L1101,800l2.18-1.43,2.63-3.37,6.7-6.82,7.64-.71,4.66-3.38,3.15-1,1.62-1,55.31-51.89L1241.49,686l15.68-1.23,14.28-1.11,4.22-3.76,2.73-14.62-.43-.4-5.07-9-6.74-.9-.42,2.33-3.64-2.54a52.41,52.41,0,0,1-14.63,12.21c-6.73,2.8-33.33-5.08-33.33-5.08s21-6.74,23.43-7.45c.58-.2,1-.4,1.59-.61a76,76,0,0,1,10.52-4l.62-.13a9.77,9.77,0,0,1,2.75-.27l1.57.18a45.65,45.65,0,0,1,5.46.88,7.42,7.42,0,0,1,2.38.79l.11.07L1263,648l3.41,3,.42-6.32,4.15-10.85,11.56-5,17.68.05,7.56,5.34-.37,6-.71-1,1.66,2.41,3.09,15.34,2.11,4.93-2.57,1.74-1.71,12.12-2.13,1.87-12.35-3L1292,687.34l2,5.85-.66-1.92,19.5,5.9,31.58-2.51,77.68-31.5,4.41,3.85-4.37-3.85,10.66-6.12,8.55-4.08,7-3.33a3.11,3.11,0,0,1-.9,1.9,15.32,15.32,0,0,1-2.84,1.69h0l3.69-.81s-1,1.72-1.89,2a11.67,11.67,0,0,1-1.31.26h.9a5,5,0,0,1-2,1.53,18.25,18.25,0,0,1-3.13.23l-1.1.49.5-.19,3,0a8.83,8.83,0,0,1-2,1.53,14.27,14.27,0,0,1-3.13.23l-4,2.7-.41.71,4.41,1.7a23.52,23.52,0,0,1,5.54-1.31,4.26,4.26,0,0,1,2.27,1.27l-8.69,2.09-4.92,1.28-4.42,1.34L1349.66,708,1303,717.63l-3.26,6.7A38.59,38.59,0,0,1,1298,737a60,60,0,0,1-8.12,12.76l-17.71,24.86L1258.1,816l-.36,1.36,3.7,5.76,34.64,18.78c7.71,4.06,15.23,8.11,21.64,11.75l.72.39.06,0,1.27.75,0,0,2.37,1.43a49.32,49.32,0,0,1,13.06,9.25c2.78,3-60.41,89.62-79.93,116.2L1500,909.49l.8-1.12L1562.12,750l21.53-90.14L1542,651l47.21-59,3.19-31.38L1593,548l-51,26.31-60.38,53.37-2.42,4.6-3.88,6.11-5.65,7.63a5.06,5.06,0,0,1-.58-3,27.32,27.32,0,0,1,3.53-5.69v-5l-1.84.18-3.88,3a16.08,16.08,0,0,1-1.42,3.4,10.14,10.14,0,0,1-2.43,1.63l1.07-3.37.39-.5-1,1a22,22,0,0,1-1.42,3.4,5.77,5.77,0,0,1-2.43,1.64l.32-1q-.36.71-.78,1.38c-.64.93-2.91,1.36-2.91,1.36l.67-1.13a7.68,7.68,0,0,1-3.78.14l6.32-6.57,7.72-8,10.78-9.6,3.57,8.41-1.15-3-.08.08-2-5.58,56.6-60.79,60-52.73,43.75-10.5,1.08-1.16.07-2.18-1.84.65-4,.34-2.08-1.92.24-2.24-2.76-11.37,0,0-3.81-1,.37,0-.37-.11,1.8-9.12-.1-16.26,0,6.24-3.87-8.81,2.76-5.69,14.53-3.79,23.55,4.39,5.46,14.06-3.44,4.75,1.69-4-5.13,11.87.87-6.19h0l-2,14-3.35,20.49,22.32,15.58,13.73,8.18,26.48,15.78,69.23-52.2,1.51-2.11,1.4-1.2,2.38-3.1a28,28,0,0,1,2.48-1.32l-66.63-264.78L1766,351.24s-60.51-23.54-81.57-22.67l5.35,23.13a6.18,6.18,0,0,1,.25,1.05l.07.28h0c2.5,25.61-194.07-21.41-194.07-21.41s138.11-33.33,151.4-61.12l-7.54-17a12.4,12.4,0,0,1-.58-1.29l-.49-1.09h0c-7.31-24.36,92.4-38.24,92.4-38.24l7.29-1.83,67,266.13c1.23-.33,2.31-.54,2.59-.3a3.76,3.76,0,0,1,.6,3.08l0,.2a3.5,3.5,0,0,1,.7,3.65l0,.1a4.38,4.38,0,0,1,.73,3.77v.07a6.19,6.19,0,0,1,.79,2.91h0a.81.81,0,0,1-.11.66,7.8,7.8,0,0,1-1.7.47l76.46,303.9,20.27-6V0H0V1248c46.53,5.36,102.56,34.15,111.2,72.36Z"/><path class="cls-17" d="M1645.21,496.76l6.16,3.14h0Z"/><path class="cls-17" d="M1654,493.06l-.65,6.64-2,.19,5.9-.45,1.09-1.38,3.35-20.49-8.08,9.29-13.83,4.93-.07,2.18,4.6,2.34,9.69-3.25Z"/><path class="cls-18" d="M1606.09,568,1571,631.6l-17.71,9.63L1542,651l41.69,8.83,8.2-34.32Z"/><path class="cls-19" d="M1606.09,568l-14.24,57.53,37.61,10.3,1.92.26,19-82-21.9,43.38L1604.65,620l3.31-7.49-4.54,4.41,8.52-22.66L1639.88,552l13.4-45.76-1.91-6.37-6.16-3.14-.88-.45-4.6-2.34-1.08,1.16-15,41L1606.09,568Z"/><path class="cls-19" d="M1656.58,599.4l-5.77,39.25,5.54-37.25Z"/><path class="cls-19" d="M1657.27,499.44l1.09-1.38-1.09,1.38Z"/><path class="cls-18" d="M1713.29,736.7c-2.65-4.53-62.48-98.06-62.48-98.06l-19.49-2.33-56.77,117.2-65.34,153.27,6.82-2,67.82-144.7,41.89-86.44,58.63,60.29,6.93.65L1653,690.46l13.25-10.33s38.73,52.17,38.25,55.94c-.4,3.1-45.4,97.87-61.25,131.18l7.81-2.31c18.07-34.75,64.41-124.6,62.28-128.23Z"/><path class="cls-18" d="M1629.46,635.81l1.86.5.06-.25Z"/><path class="cls-20" d="M1648.47,555.24l-25.37,42.54L1608,612.46l-3.31,7.49,23.86-22.49,21.9-43.38,6.14-46.35Zm8.41-50,.39-5.77-.47,6.39.08-.62Z"/><path class="cls-21" d="M1648.47,555.24l8.08-47.51.25-1.9.47-6.39h0l-5.9.45h0l1.91,6.37L1639.88,552l-27.94,42.18-8.52,22.66,4.54-4.41,15.14-14.68,25.37-42.54Z"/><path class="cls-20" d="M1656.88,505.21l-.08.62-.25,1.89-6.14,46.36-19,82-.06.25,19.49,2.33,5.77-39.25c.86-7.41,4.08-34.63,7.61-58.42,4.14-27.81-5.83-42.91-5.83-42.91l-1.09,1.38Z"/><path class="cls-18" d="M1596.72,531l-2.84,1.7-.56,15-.37.2-.59,12.64L1589.17,592,1600,553.28Zm27,5.09-14.14,25.61L1571,631.6,1606.09,568Z"/><path class="cls-18" d="M1664.19,541c-3.53,23.79-6.76,51-7.61,58.43l-.23,2,16.43-59.28-.08,0,8-28.46-22.31-15.58s10,15.1,5.83,42.91Z"/><path class="cls-18" d="M1593.88,532.71l-53,31.72-60.48,60.22,1.15,3L1542,574.26,1593,548l.37-.2Z"/><path class="cls-22" d="M1509.21,906.78l65.34-153.27,56.77-117.2-1.86-.5h0l-37.61-10.3-8.2,34.32L1562.11,750l-61.27,158.41,1.19.53ZM1571,631.6l38.6-69.89,14.14-25.61,15-41-43.75,10.5-60,52.73-56.6,60.79,2,5.58.08-.08,60.48-60.22,53-31.72,2.84-1.7,3.28,22.27L1589.17,592,1542,651l11.28-9.77L1571,631.6Z"/><path class="cls-23" d="M1661.71,477.57l2-14-2.64-2.25-4.25.92-3.15,10.34-2.79-.05-.73-11.7-2.45-4.22,16.13-3.9-.14-.3-19.18-.36-4.69-3.44-.38.07L1628.18,451l.14,11.94,2.44-2.35,6.1,1.41,2.46,3.46-5.92.89-5-1.16-1.13,1.81-1.8,9.12.38.11,5,.21-1.54.79,2.76,11.37-.24,2.24,2.08,1.9,4-.33,1.84-.65,13.83-4.93,8.08-9.29Z"/><path class="cls-24" d="M1663.78,452.71l-16.13,3.9,2.45,4.22.73,11.7,2.79.05,3.15-10.34,4.25-.92,2.64,2.25h0l-.86,6.19,5.12-11.87-3-5.47-1.12.28Z"/><path class="cls-18" d="M1639.39,448.68l.38-.07,4.69,3.44-3.79-13.33-14.53,3.79-2.76,5.69,3.87,8.81,0-6.23,12.56-2.18Z"/><path class="cls-22" d="M1644.46,452.05l19.18.36,1.26,0,3,5.47-1.69,4,3.44-4.75-5.45-14.06-23.56-4.39,3.79,13.33Z"/><path class="cls-17" d="M1633.4,466.38l5.92-.89-2.46-3.46-6.1-1.41-2.44,2.35-.14-11.94,11.22-2.35.37-.08-12.56,2.18.1,16.25,1.13-1.81,5,1.16Zm-7.51,9.88-.38,0,3.81,1h0l1.54-.79Z"/><path class="cls-18" d="M1672.78,542.12c.9.31,44.57,14.88,52.39,15.7s69.29-62.57,69.29-62.57l-4.34-9.85,2.16,6.54s-64.56,56.38-68.64,58.55-31.53-10.19-31.53-10.19l2.3-18.48-13.73-8.18-8,28.45Z"/><path class="cls-22" d="M1723.64,550.49c4.08-2.16,68.64-58.55,68.64-58.55l-2.16-6.54-69.23,52.2-26.48-15.78-2.3,18.48S1719.56,552.65,1723.64,550.49Z"/><path class="cls-18" d="M1502,908.9l-1.19-.53-.8,1.12,2-.59Z"/><path class="cls-22" d="M1666.2,680.13,1653,690.46l38.35,44.11-6.93-.65L1635,869.67l8.23-2.43c15.85-33.3,60.85-128.07,61.25-131.17.48-3.77-38.25-55.94-38.25-55.94Z"/><path class="cls-23" d="M1653.37,499.7l.65-6.64-9.69,3.25.88.45,6.16,3.13Z"/><path class="cls-17" d="M1457,643.25l-.67,1.13s2.27-.43,2.91-1.36c.2-.3.49-.82.78-1.37l.56-1.8A19.88,19.88,0,0,1,1457,643.25Z"/><path class="cls-17" d="M1462,638.23s-.62.73-1.44,1.62l-.56,1.8-.32,1a5.77,5.77,0,0,0,2.43-1.64,22,22,0,0,0,1.42-3.4l1-1,1.22-1.55Z"/><path class="cls-17" d="M1465.7,635l-1.22,1.55-.39.5-1.07,3.38a10.49,10.49,0,0,0,2.43-1.64,16.08,16.08,0,0,0,1.42-3.4l3.88-3-2.3.23Z"/><path class="cls-23" d="M1467.23,628.81l-7.72,8-6.32,6.58a7.81,7.81,0,0,0,3.78-.15,19.88,19.88,0,0,0,3.58-3.4c.81-.89,1.44-1.62,1.44-1.62l3.71-3.21,2.75-2.38,2.3-.23,1.84-.18v5a27.32,27.32,0,0,0-3.53,5.69,5.06,5.06,0,0,0,.58,3l5.65-7.63,3.88-6.11,2.42-4.6-3.57-8.42Z"/><path class="cls-18" d="M944.44,920.67,936,918.53l-10.14-2.32-68.26,107.12-53.32,93.31,10.31-3.1,51.28-82.79,50.36-79,71.28,54.2,6.65,1.42L947.88,970.1l14.72-12.89,44.8,48.7-52.17,65.38,14.28-4.29c24.09-28.64,47.38-57.2,46.38-59.48-2-4.68-71.45-86.85-71.45-86.85Z"/><path class="cls-22" d="M857.56,1023.34l68.26-107.13-37-14.94-42.89,117.22-53.65,101.75,12-3.6,53.32-93.3Zm105-66.13L947.88,970.1l46.24,37.24-6.65-1.41L939,1076.17l16.23-4.88,52.18-65.38Z"/><path class="cls-23" d="M963.29,785.62h0l5.8.33-4.77-10,8.6,2-8.68-2.23-8.72-8.35L955,765l-2.21,13.33,10.54,7.28Z"/><path class="cls-19" d="M954.9,885l.48-1.93L944.65,920.5,954.9,885Z"/><path class="cls-20" d="M953.25,839.07,923,877.14l-16.64,12.31-4.19,6.85,26.13-18.76,27-39.34,12-44.25-14,45.12Zm14.56-47,.15-.57,1.13-5.56Z"/><path class="cls-22" d="M953.25,839.07l14-45.12.51-1.88,1.28-6.13-5.8-.33h0l1,6.45-19,42.76-32.67,37.38L901.4,893.14l5-3.69L923,877.14Z"/><path class="cls-20" d="M968,791.5l-.16.57-.51,1.88-12,44.25-29.47,78L936,918.53l8.69,2,10.74-37.44q7.11-28,15-55.82c7.65-26.52-.08-42.51-.08-42.51l-1.24,1.2Z"/><path class="cls-20" d="M970.41,827.25Q962.22,856,954.9,885l27.19-61.62,12-27.25-23.79-11.39s7.73,16,.08,42.5Z"/><path class="cls-17" d="M969.09,785.94l1.24-1.2,2.59-6.78-8.6-2Z"/><path class="cls-23" d="M964.24,775.73l8.68,2.23,7.14,1.83,4,0,1.85-2.06-.42-2.17,1.67-11.35-1.57-.63,4.86-.66.35-.13L988.2,754l-1.27-1.68-4.74,1.58-5.88-.33,2.1-3.6,5.84-1.93,2.59,2.08-.93-11.68-11.16-1.3-.38,0-4.28,3.78L951.38,743l-.11.3,16.11,2.37-2,4.34.33,11.5-2.71.3L959,752l-4.24-.53-2.38,2.44L955,765l.56,2.37Z"/><path class="cls-24" d="M959,752l4,9.82,2.71-.3-.33-11.5,2-4.34-16.11-2.37-1.12-.17-2.48,5.61,6.08,11.15-1.4-6v0l2.38-2.44L959,752Z"/><path class="cls-18" d="M970.09,740.9l4.28-3.78.38,0-.38,0,12.47,1,.52,6.1,3-9-3.21-5.32-14.54-2.41Z"/><path class="cls-22" d="M951.38,743l18.71-2.07,2.51-13.38L950,733.92l-4.07,14.24,3.79,4.34-2-3.79,2.48-5.61Z"/><path class="cls-17" d="M974.37,737.1l.38,0,11.16,1.3.93,11.68-2.59-2.08L978.41,750l-2.1,3.6,5.88.33,4.74-1.58L988.2,754l-.84-9.8-.52-6.1-12.47-1Zm12.75,27.08h0l3.64-1.35-.37,0-4.86.66,1.57.63Z"/><path class="cls-20" d="M795.28,882.17l1.07,1.18-.15.12v0L847,845l61-24.06,1.83-7.6-64.57,26.18-50,42.65Z"/><path class="cls-22" d="M783.88,928.71l-8.65,3.71-3.61-4.5L770,929.23a3.5,3.5,0,0,1-4.37-5.46l1.26-1c.1-.14.1-.33.24-.44l-18.94-23.65-1.63,1.3a3.42,3.42,0,0,1-1.83.75,3.5,3.5,0,0,1-2.54-6.21l1.26-1c.11-.13.11-.32.25-.44L740,888.39l6.69-12,5.52-11.54-41.51,33.27,43.6,53.73Z"/><path class="cls-18" d="M780.49,895.11l-.29.18,2.33,2.91-2.31,1.72,2.69,3.35.87-5.73-2.1-2.64-1.22.23ZM772.78,886l1.42,1.77,1.13-.83-1.46-1.82-6.29-1,3,3.77Zm-29.41,10.13a2.12,2.12,0,0,1,.08-2.65l-1.26,1a3.5,3.5,0,0,0,2.54,6.2,3.34,3.34,0,0,0,1.83-.75l1.62-1.3,19,23.65v0l2.62-2.1-20.65-25.78-2.62,2.1a2.23,2.23,0,0,1-3.12-.34Z"/><path class="cls-18" d="M743.7,893.06v0l2.62-2.09-4.16-5.2,4.47-9.31-6.68,12,3.74,4.67Z"/><path class="cls-18" d="M772.54,923.66l-2.61,2.1a2.22,2.22,0,0,1-3.13-.34,2.12,2.12,0,0,1,.09-2.66l-1.26,1a3.49,3.49,0,1,0,4.24,5.55l.12-.1,1.63-1.31,3.61,4.5,8.65-3.71,14.44-6.2-21.89,6Z"/><path class="cls-22" d="M770.6,887.91l-3-3.77-15.41-19.25-5.53,11.54-4.47,9.31,4.16,5.2,2.69-2.16,2.78,3.48-2.69,2.15,20.65,25.78,2.69-2.15,2.79,3.47-2.69,2.16,3.88,4.84,21.89-6-15.41-19.24-2.69-3.35Z"/><path class="cls-19" d="M743.69,893.05c-.13.13-.13.32-.24.46a2.12,2.12,0,0,0-.08,2.65,2.23,2.23,0,0,0,3.12.35l2.62-2.1,2.69-2.15L749,888.78l-2.69,2.16L743.71,893Zm23.45,29.26c-.15.12-.15.31-.25.45a2.14,2.14,0,0,0-.09,2.66,2.23,2.23,0,0,0,3.13.34l2.62-2.09,2.69-2.16L772.45,918l-2.69,2.15-2.62,2.1Z"/><path class="cls-18" d="M783.88,928.71l-29.63,23.18-43.6-53.73L708,900.28l46.15,57.62,44.17-35.39-14.44,6.2Z"/><path class="cls-23" d="M773.68,888.19c-.29.32.81,1.66,1.44,1.83-.11.56.75,2.09,1.23,2-.11.58,1.33,2.16,1.64,2.16,0,.33.67,1.58,1.09,1.7-.14-.08,0-.39,0-.39l10.16-7.37-1.78,1.93L786,891.58l-1.94,1-.12.09c1.84-1.34,3.51-2.59,3.51-2.59s-3,2.25-5.43,4l5.92-1.35,6.08-8.85,1.25-1.64-4.31-4.82-1.62,1-3.11.89s-7.5,5.27-10.87,7.7c-.56.4-1.11.81-1.65,1.22Z"/><path class="cls-23" d="M795.28,882.17l0,0,1.11,1.14Z"/><path class="cls-23" d="M779.08,895.92a4.42,4.42,0,0,0,1.12-.63l.29-.18,1-.72a13.61,13.61,0,0,1-2.43,1.53Z"/><path class="cls-17" d="M795.24,882.21,794,883.84l-6.08,8.86L782,894.05l-.48.34-1,.72,0,0,1.22-.23,6.24-1.2,4.91-6.08,1.86-2.94,1.52-1.21.15-.12Z"/><path class="cls-17" d="M787.42,890.08l1.78-1.92L779,895.53s-.1.31,0,.39a13.61,13.61,0,0,0,2.43-1.53l.48-.34c2.41-1.71,5.43-4,5.43-4Z"/><path class="cls-19" d="M902.2,896.3l4.19-6.85-5,3.69,11.24-20.93,32.67-37.38,19-42.76-1-6.46-10.54-7.27-1.21,1-34.34,3.14L888.8,901.27l37,14.94,29.47-78-27,39.34L902.2,896.3Z"/><path class="cls-19" d="M790.93,877.39l4.31,4.82,0,0,50-42.65,64.57-26.18,7.4-30.88-71.46,44.72-54.81,50.21Z"/><path class="cls-20" d="M982.1,823.38l47.56,25,77.27-40.53-.75-1-.92-1.24-75.11,36.74-23.59-15.83,7.55-15.41-20-15-12,27.25Z"/><path class="cls-19" d="M1030.15,842.36l75.11-36.74L1101,800l-65.13,27.5-21.79-16.33-7.55,15.41,23.59,15.83Z"/><path class="cls-23" d="M1129.22,796.73c.14-.13,0-.45-.13-.8l-.83,1.06C1128.88,796.72,1129.32,796.57,1129.22,796.73Zm-6.4,1.08,2-1,1.45-1.55s-1.66,1.28-3.5,2.66Zm-16.64,9.05,3.75-1.64,2.22-.17,10.51-5.32-3.44.72,0,0a5.73,5.73,0,0,1-1.42.86c-.43-.12-1.13-1.38-1.15-1.71-.31,0-1.79-1.59-1.69-2.18-.49,0-1.39-1.5-1.28-2.06-.65-.17-1.79-1.5-1.5-1.83.09-.1,1.22-.94,2.71-2l-2.23,1.35-1.75.9,3.48-3.42,3.17-.77,2.57-1.89-7.63.71-6.7,6.83-2.63,3.36L1101,800l4.23,5.67Z"/><path class="cls-17" d="M1128.26,797l-.56.71a12.63,12.63,0,0,0,1.52-1c.1-.16-.33,0-1,.26Zm-15.35,9.11s7.35-4.09,12.18-6.87l-2.43.5-10.51,5.32-2.23.17-3.74,1.64.75,1,2.08-1Zm3.1-15.44,1.58-1.15-3.16.77-3.49,3.42,1.77-.9,1.94-1.65Z"/><path class="cls-23" d="M1794.07,494.34l5.34-1.15-2.39-9.37-.24-1.37c.43.14.71-.22.94-.8l0-.07-4.67.51-1.4,1.2-1.51,2.11,4.34,9.86Z"/><path class="cls-23" d="M1798,482.86l-1,1Z"/><path class="cls-23" d="M1808.77,480.17l0-.2a.65.65,0,0,1,0,.14Z"/><path class="cls-23" d="M1810.24,487.75l0-.06v0Zm-.75-3.83,0-.1v.05Z"/><path class="cls-17" d="M1801.7,492.79l-2.27.53,0-.13-5.33,1.15.39.92,7.38-1.9Z"/><path class="cls-17" d="M1801.7,492.79l-1.86-7.37a2.12,2.12,0,0,1-.5,0c-.44,0-.83-.54-1.32-2.54l-1,1,2.38,9.37,0,.13Zm9.22-1.47a.81.81,0,0,0,.11-.66A1.34,1.34,0,0,1,1810.92,491.32Z"/><path class="cls-17" d="M1798,482.86c.49,2,.88,2.54,1.32,2.54-.85-.19-1.57-3.51-1.62-3.75-.23.58-.51,1-.94.8l.24,1.37,1-1Z"/><path class="cls-22" d="M1803.8,492.86a2.86,2.86,0,0,1-.4-2.88,4.3,4.3,0,0,1-.93-4.06,4,4,0,0,1-.79-1.44l0,.34a3,3,0,0,1-1.88.6l1.86,7.37.14.57,76.61,304.46,4.52-1.33-76.54-304.13-2.63.5Zm-3.66-15.59a6.55,6.55,0,0,1,.79,2.43,2.73,2.73,0,0,1,.16-1l1.74-.63-67-266.3,2.55-.64,67,266.14.2-.06-67-266.14-7.29,1.85,66.62,264.77c.94-.42,1.89-.74,2.25-.4Zm85.35,318.48.2-.06-76.48-303.9-.2,0Zm-84.27-314.46c.14.86.27,1.68.35,2.32a2.88,2.88,0,0,1,.21-1.36A3.83,3.83,0,0,1,1801.22,481.29Z"/><path class="cls-18" d="M1806.43,492.36,1883,796.49l2.52-.74L1809,491.84C1808.22,492,1807.3,492.19,1806.43,492.36Zm-1.09-15.11-67-266.13-2.55.63,67,266.3C1803.59,477.78,1804.49,477.49,1805.34,477.25Z"/><path class="cls-21" d="M1685.46,345.38a17.62,17.62,0,0,1,4.36,6.32l-5.35-23.13c-8.68.36-10.71,4.82,1,16.82Z"/><path class="cls-25" d="M1690.14,353l-.07-.28,0,.28Z"/><path class="cls-21" d="M1639.89,253.52l-.57-1.29A12.33,12.33,0,0,0,1639.89,253.52Z"/><path class="cls-18" d="M1689.82,351.7a17.58,17.58,0,0,0-4.36-6.31c-11.7-12-9.66-16.46-1-16.82,21.06-.87,81.57,22.67,81.57,22.67L1731.26,212.9s-99.7,13.87-92.4,38.23h0l.49,1.09.58,1.28,7.54,17c-13.29,27.79-151.4,61.12-151.4,61.12s196.57,47,194.07,21.42l0-.29a6.18,6.18,0,0,0-.25-1.05Z"/><path class="cls-23" d="M1802.83,478.05c-1,.34-1.74.63-1.74.63a2.73,2.73,0,0,0-.16,1c.1.51.21,1.05.29,1.59a3.83,3.83,0,0,0,.56,1,2.88,2.88,0,0,0-.21,1.36l.11.87a4,4,0,0,0,.79,1.44,4.3,4.3,0,0,0,.93,4.06,2.86,2.86,0,0,0,.4,2.88s1.21-.22,2.63-.5c.87-.17,1.79-.35,2.58-.52l.21,0a7.8,7.8,0,0,0,1.7-.47,1.24,1.24,0,0,0,.1-.66,6.19,6.19,0,0,0-.79-2.91v-.06a4.45,4.45,0,0,0-.73-3.77l0-.05v-.05a3.52,3.52,0,0,0-.7-3.65l0-.06a.66.66,0,0,0,0-.14,3.76,3.76,0,0,0-.6-3.08c-.28-.24-1.36,0-2.59.3l-.2.07c-.84.24-1.68.5-2.5.79Z"/><path class="cls-23" d="M1797.7,481.58l0,.07c0,.24.77,3.56,1.62,3.75a2.12,2.12,0,0,0,.5,0,3,3,0,0,0,1.88-.6l0-.34c-.13-1.07-.28-2.13-.46-3.19-.08-.53-.18-1.06-.29-1.59a6.55,6.55,0,0,0-.79-2.43c-.35-.34-1.3,0-2.25.4a28,28,0,0,0-2.48,1.32L1793,482.1Z"/><path class="cls-23" d="M1189.44,909.34l-20.63,2.37-6,16.28-40.47,93.12,10.18-3.06,43.8-86Zm103.79-38.93-7-2.84.39-.26-.54.21,20.17,8.21-13.06-5.32Zm24.23-14.7h0l-27.13,10.22.11.06Z"/><path class="cls-23" d="M1317.88,856l-22,12.91,12.46,6.62-2,.24-63.55,109.68,8.35-2.46c16.65-23.89,79.7-114.68,78.3-117.91a35.8,35.8,0,0,0-11.51-9.08Zm4.29.29a83.45,83.45,0,0,1,13.07,9.25A49.37,49.37,0,0,0,1322.17,856.25ZM1296.08,842l21.64,11.74C1311.31,850.05,1303.8,846,1296.08,842Z"/><path class="cls-23" d="M1288.86,691.24l.15.06h0l2.45.92.57-4.88,2.8-12.83-2.18,10-6.9-12.22-7.35-7-2.73,14.62.16-.15Z"/><path class="cls-23" d="M1294.83,674.51l12.35,3,2.13-1.86,1.72-12.13-1.18-.4,3.74-1.33-2.11-4.94-3.09-15.34,2.42,12-1.27-.53-4.75,1.74-6-.17,2-3.72,5.88-2.13,2.68,2-1-9.26-1.66-2.41-1.69-2.46-6.11-.19-17.17,15.37-4.63-.85-2.19,2.38,3,11.52.43.4,7.35,7Z"/><path class="cls-19" d="M1270.55,735.08V735l.13,22.88.21-.63,16.34-34.46,4.07-29.27-4.14,6.6,1.84-8.81-.15-.06-13-11.46-.16.15-4.22,3.76.84,11.48ZM1241,812.61l-9-2.56-12-.29,8.52,3,28.68,4.57.57.08,1.63-24.45Z"/><path class="cls-19" d="M1228.7,807.8l35.62-34.22-6.57,43.82.35-1.37,6.24-42.54Zm28.47-123,14.28-1.11Zm-28.47,123-17-.92.06,0Z"/><path class="cls-18" d="M1244.05,708.42l-6.42,3.18-1,6.84-.12.06-7,45.38,14.28-40.13Zm26.5,26.66,1.74-39.91-.84-11.48-2.18,78.64,1.28-27.25Z"/><path class="cls-20" d="M1291.46,692.22l-2.45-.92-1.84,8.81,4.14-6.6-4.07,29.27-16.35,34.46-.2.63,0,2.31-1.43,2.14a257.47,257.47,0,0,0,22.41-31.66,150.61,150.61,0,0,0,4.23-25.57l-1.87-11.9-2-5.85-.56,4.88Zm.24-1.24,2.18,11.73-2.38-10.58Z"/><path class="cls-18" d="M1291.69,730.67a257.36,257.36,0,0,1-22.41,31.65h0l-.18,6.58-4.75,4.58L1258.1,816l14.07-41.41,17.71-24.85A59.94,59.94,0,0,0,1298,737a38.64,38.64,0,0,0,1.73-12.68l3.25-6.71-1.78.37,11.7-20.82-19.5-5.9.67,1.92,1.86,11.9a150.72,150.72,0,0,1-4.23,25.58Z"/><path class="cls-18" d="M1266.17,655.05l6.73.9-.78-2.78Zm30.58-19.74-15,16.55,17.17-15.37,6.11.19,1.69,2.46.72,1,.36-6Z"/><path class="cls-18" d="M1264.73,653l-2.35-.6a200.31,200.31,0,0,1-17.8,10.71c-6.07,2.86-30.44-1.18-30.44-1.18s26.6,7.88,33.33,5.08a52.41,52.41,0,0,0,14.63-12.21l3.63,2.54.43-2.33.27-4.1Zm-10.11-3.37c2,.24,4,.55,5.46.88A45.65,45.65,0,0,0,1254.62,649.67Zm-17,4.85a16.9,16.9,0,0,0,1.59-.61C1238.62,654.12,1238.15,654.32,1237.57,654.52Zm24.89-3.18.11.07Zm-12.78-1.45.62-.13Z"/><path class="cls-18" d="M1186.38,744.36l50.1-25.86.12-.06,1-6.84-.06,0-52.92,29L1133,785.87l-3.41-3.63,5.72,6.1,51-44Z"/><path class="cls-23" d="M1117.83,801.27a5.61,5.61,0,0,0,1.43-.86l1-.72A13.35,13.35,0,0,1,1117.83,801.27Z"/><path class="cls-23" d="M1116,790.66l-1.08.79c-1.49,1.1-2.63,1.94-2.71,2-.29.33.85,1.66,1.5,1.83-.11.56.79,2.11,1.28,2.06-.1.59,1.38,2.18,1.69,2.18,0,.33.72,1.59,1.15,1.71-.16-.09-.06-.41-.06-.41l10.23-7.63-1.78,2-1.45,1.55-2,1-.09.07c1.84-1.39,3.5-2.67,3.5-2.67s-3,2.34-5.47,4.11l6-1.46,6.06-9.1,1.25-1.67,1.15,1.13-5.61-6-1.62,1-3.15,1-4.66,3.38-2.58,1.89-1.59,1.15Z"/><path class="cls-17" d="M1125.09,799.23l1.69-.35.92-1.18.56-.71.83-1.06,2.6-3.3,1.85-3,1.68-1.39-1.15-1.13-1.25,1.67-6.06,9.1-6,1.46c-.18.13-.33.25-.52.37l-1,.72,0,0,3.44-.72Z"/><path class="cls-17" d="M1120.76,799.32c2.43-1.77,5.47-4.11,5.47-4.11l1.78-2-10.23,7.63s-.1.32,0,.41a13.35,13.35,0,0,0,2.41-1.58Z"/><path class="cls-17" d="M1306.71,648.77l-5.88,2.13-2,3.72,6,.17,4.75-1.74,1.27.53-2.42-12,1,9.26-2.68-2Zm-21,23.49,6.9,12.22,2.18-10-9.08-2.25Z"/><path class="cls-17" d="M1295.85,868.87l22-12.91-.41-.25-27,10.28Z"/><path class="cls-17" d="M1293.23,870.41l-7-2.84Z"/><path class="cls-17" d="M1319.81,854.82l-2.36.89.43.25a35.8,35.8,0,0,1,11.51,9.08c1.4,3.23-61.65,94-78.3,117.91l4.22-1.25c19.53-26.58,82.71-113.16,79.93-116.2a83.45,83.45,0,0,0-13.07-9.25l-2.36-1.43Zm-1.31-.78-.06,0,1.33.71Z"/><path class="cls-17" d="M1293.23,870.41l13.06,5.32,2-.23-12.46-6.63-5.42-2.88-.11-.06-3.66,1.38-.39.26,7,2.84Z"/><path class="cls-18" d="M1220,809.76l-8.23-2.87h.07l-.06,0-4-.23-1.38,3.71,13.64-.6Zm37.21,7.56.73,6.37,53.2,34.41-107.9,40.65,82.91-31.23.54-.21,3.66-1.38,27.13-10.22,2.36-.89,0,0-1.33-.71-.72-.39L1296.08,842l-34.64-18.79-3.69-5.76ZM1220,809.76l8.53,3-8.52-3Z"/><path class="cls-17" d="M1203.21,898.75l-34.4,13,20.63-2.37-13.15,22.71-43.8,86,5.41-1.62L1179.82,935Z"/><path class="cls-22" d="M1184.65,740.6l52.92-29,.06,0,6.42-3.18-.29,15.33-14.28,40.13-33,42.17,11.18.6,4,.23,17,.92,35.64-34.31,4.75-4.58.18-6.58h0l2.18-78.64-14.28,1.11L1241.49,686l-56.57,44.33-55.3,51.88,3.41,3.63ZM1277.13,651l4.63.84,15-16.55,11.06-1.13-7.55-5.35-17.69-.05-11.55,5-4.16,10.85-.42,6.31-.27,4.1,5.95-1.88.78,2.78,5.07,9-3-11.52,2.19-2.37Z"/><path class="cls-20" d="M1211.81,806.9h-.07l8.23,2.87h0l12,.29,9,2.56,18.4-19.66-1.63,24.45,6.57-43.82L1228.7,807.8l-16.89-.9Z"/><path class="cls-19" d="M1291.7,691l-.2,1.15,2.39,10.58Z"/><path class="cls-20" d="M1270.71,760.18l0-2.31-.13-22.88v.09l-1.28,27.25h0Z"/><path class="cls-22" d="M1203.21,898.75l107.9-40.65-53.2-34.41-.73-6.37-28.68-4.57-8.53-3-13.64.6-37.52,101.35,34.4-13Z"/><path class="cls-22" d="M1244.58,663.15a200.31,200.31,0,0,0,17.8-10.71l2.35.6,1.71-2.09-3.41-3-.46,3.43-.11-.07a7.48,7.48,0,0,0-2.38-.78,59.65,59.65,0,0,0-7-1.07,9.43,9.43,0,0,0-2.75.28l-.62.12a76,76,0,0,0-10.52,4,14.07,14.07,0,0,1-1.59.6c-2.41.72-23.43,7.46-23.43,7.46S1238.51,666,1244.58,663.15Z"/><path class="cls-17" d="M1311,663.56l2.56-1.73-3.74,1.33Z"/><path class="cls-18" d="M1303,717.63l46.69-9.61L1428,668.31l-1.4-1.22-79.17,36.16L1322,708.72l1.25-12.28,21.2-1.78-31.58,2.51L1301.19,718Z"/><path class="cls-22" d="M1322,708.72l25.44-5.47,79.17-36.16h0l-.08-.07-4.41-3.84-77.68,31.49-21.2,1.78L1322,708.72Z"/><path class="cls-17" d="M1440,655.73l3.09-1.11,2.11,0c.53-.09,1-.18,1.31-.26.93-.27,1.89-2,1.89-2l-3.69.81h0c-1.45.74-2.89,1.4-2.89,1.4Z"/><path class="cls-17" d="M1440,655.73l-4,2.43-.09.17,3.94-1.42,1.1-.49a18.32,18.32,0,0,0,3.13-.23,5,5,0,0,0,2-1.53h-.89l-2.12,0Z"/><path class="cls-17" d="M1434.25,661.23l4-2.7a14.27,14.27,0,0,0,3.13-.23,8.83,8.83,0,0,0,2-1.53l-3,0-.5.19-3.94,1.42Z"/><path class="cls-23" d="M1428,668.31l4.42-1.35,4.92-1.27,8.69-2.09a4.3,4.3,0,0,0-2.27-1.27,23.52,23.52,0,0,0-5.54,1.31l-4.41-1.7.41-.71,1.68-2.9.09-.17,4-2.43,1.81-1.11s1.44-.66,2.89-1.4a14.74,14.74,0,0,0,2.84-1.68,3.17,3.17,0,0,0,.9-1.91l-7,3.33-8.55,4.08-10.66,6.12,4.37,3.85.07.07Z"/><path class="cls-18" d="M1733.13,920.93l-11.27,108.43-14.25-100.24L1607,961.42l-18.22,100.29,64.68-40.94L1579.8,1118l-.61,9.16-.53-7.66-.5.66L1462.3,1273l-31.75-1a77.12,77.12,0,0,1,24.11,41.06c35.35-25.28,63.69-32.22,116.17-21L1776.05,993l-97,301.18a205.91,205.91,0,0,1,56.82,12c2.77-2.43,5.7-4.93,8.74-7.43l62.07-103.83,99.25-64.15v-246l-97,11.82Z"/><path class="cls-18" d="M746.09,1281c81.08-50,155.39-13.69,154.7-11.81,51.18-16,103.29-35.9,144.45-9.41l477.7-207.53-129.71,133.17,181.72-115-6.26-96.75-385,123.6L632.41,1268.07a70.21,70.21,0,0,1,8.59,3.6c23-11.7,73.11-16.63,105.09,9.37Z"/><path class="cls-19" d="M1808.93,896.59l97-11.82v-.46l-92.55,10.85Z"/><path class="cls-19" d="M1885.49,795.75l-2.52.74-4.52,1.33L1651,864.94l-7.81,2.3-8.23,2.43L1516,904.77l-6.82,2L1502,908.9l-2,.59L1255.31,981.7l-4.22,1.25-8.35,2.46-90.68,26.76-14.16,4.26-5.41,1.62-10.19,3.06L969.51,1067l-14.28,4.29L939,1076.17l-124.45,37.37-10.31,3.1-12,3.6-452.95,136c13.88,3.94,27.92,8.58,41.89,13-.61-1.66,57.88-30.39,127.72-1.89l661.59-202.89,621.8-195L1906,852.3V789.71l-20.27,6Z"/><path class="cls-22" d="M1679.07,1294.15l97-301.18-205.22,299.09c9.91,2.12,20.57,4.8,32.42,8.21A260.83,260.83,0,0,1,1679.07,1294.15Zm-285.84-108.69-3,3.07-94,58.61a79.14,79.14,0,0,1,28.58,4.43c31.62-19.16,77.57-6.08,105.74,20.46l31.75,1,115.87-152.87-3.22-49.68Z"/><path class="cls-22" d="M1578.16,1120.13l.5-.66-.1-1.52-.4,2.18Zm1.64-2.16,73.65-97.2-64.67,40.94-8.28,45.55-.7,10.71Z"/><path class="cls-21" d="M1393.23,1185.46l129.71-133.17-477.7,207.53a86.6,86.6,0,0,1,14.6,11.85,106,106,0,0,1,8.45,9.64c44.75-4.37,85.38-2,102.49,39.09,9.55-42.21,76.93-72.93,125.45-73.26l94-58.61Z"/><path class="cls-26" d="M1792.31,869.43l-621.8,195L508.92,1267.33a184.31,184.31,0,0,1,27,13.71c28.44-23.12,71.2-21.78,96.51-13l551.29-170.76,385-123.6,6.26,96.75,3.21,49.67.4-2.18-8.18-118.19L1588,993l-7.51,114.29,8.27-45.55L1607,961.42l100.62-32.3,14.25,100.24L1711,953l10.86-5.44v81.85l11.27-108.43,75.8-24.34,4.47-1.43L1906,884.31v-32Z"/><path class="cls-19" d="M1588,993l-17.63,6.79,8.18,118.19.1,1.52.54,7.66.6-9.16.7-10.71L1588,993Zm123-40,10.86,76.41V947.51Z"/><path class="cls-19" d="M1744.63,1298.75c-3,2.5-6,5-8.73,7.41a153,153,0,0,1,67,46.76c43.83-1.8,84.82-6.55,103.08-17.21v-65.65a143.19,143.19,0,0,0-53-10.81,160.06,160.06,0,0,0-108.38,39.5Z"/><path class="cls-26" d="M1803.92,1354.13c1.57,2,3,4.07,4.49,6.15H1906v-24.57c-18.26,10.66-59.25,15.41-103.08,17.22.34.41.72.79,1.05,1.21Z"/><path class="cls-19" d="M1802.87,1352.93a152.87,152.87,0,0,0-67-46.76,205.91,205.91,0,0,0-56.83-12,260.51,260.51,0,0,0-75.82,6.12q-16.07-4.66-32.42-8.21c-52.48-11.19-80.82-4.25-116.17,21a77.12,77.12,0,0,0-24.11-41.06c-28.17-26.54-74.12-39.62-105.74-20.47a79.13,79.13,0,0,0-28.58-4.42c-48.52.33-115.9,31-125.45,73.26-17.11-41.05-57.74-43.46-102.49-39.08a104.76,104.76,0,0,0-8.45-9.65,86.53,86.53,0,0,0-14.59-11.85c-41.17-26.49-93.28-6.56-144.46,9.41.69-1.88-73.62-38.18-154.7,11.81-32-26-82.08-21.08-105.09-9.37,7.39,3.76,12,8.21,12.3,12.57v45.64a83.78,83.78,0,0,0,93.45-34.11c4,28.84,37.35,19.52,93.44,3.65l-71,35.85,120.25-18.63c80.16,16.21,147,28,185.44-17.41,14.61,46.14,65,40.68,94.36,27.51-1.94,6.84-8.48,8.27-.66,11.23,17.6,6.65,222.16-2.46,236.28-69.24,26.19,6.86,52.6,39.32,51.43,91.55h46.16c68.11-8.58,157.47-18.45,167.48-51.59,88.42,3.75,107.51,21.74,138,51.59h.46q-2.16-3.13-4.49-6.14c-.33-.42-.71-.8-1.05-1.22Z"/><path class="cls-26" d="M1669.9,1308.69c-10,33.14-99.37,43-167.48,51.59h305.52c-30.53-29.85-49.62-47.84-138-51.59Zm-265.07-40c-14.12,66.78-218.68,75.89-236.28,69.24-7.82-3-1.28-4.39.66-11.23-29.36,13.17-79.75,18.63-94.36-27.51-38.45,45.45-105.28,33.62-185.44,17.41l-120.25,18.63,71-35.85c-56.09,15.87-89.48,25.2-93.44-3.65a83.78,83.78,0,0,1-93.45,34.11v30.4h803c1.17-52.23-25.24-84.69-51.43-91.55Z"/><path class="cls-19" d="M113.44,1338c7.82-3,1.28-4.39-.66-11.23,29.36,13.17,79.75,18.63,94.36-27.51,38.45,45.45,105.28,33.62,185.44,17.41l120.25,18.63-71-35.85c56.09,15.87,89.49,25.2,93.44-3.65,33.62,50.63,99.8,57,118.06,34.18v-45.71c-.29-4.36-4.91-8.81-12.3-12.57a70.21,70.21,0,0,0-8.59-3.6c-25.31-8.81-68.07-10.15-96.51,13a184.31,184.31,0,0,0-27-13.71c-69.84-28.49-128.33.23-127.72,1.89-14-4.36-28-9-41.89-12.94-43.14-12.22-84.62-17.39-117.15,15.39a104.56,104.56,0,0,0-8.46,9.64c-44.75-4.37-85.38-2-102.49,39.08-8.64-38.2-64.67-67-111.21-72.35v83.86c53.08,8.8,105,9.28,113.44,6.07Z"/><path class="cls-26" d="M535.24,1295.77c-4,28.84-37.35,19.52-93.44,3.65l71,35.85-120.25-18.63c-80.16,16.21-147,28-185.44-17.41-14.61,46.14-65,40.68-94.36,27.51,1.94,6.84,8.48,8.27.66,11.23-8.47,3.21-60.36,2.73-113.44-6.08v28.38H653.3V1330c-18.26,22.77-84.44,16.45-118.06-34.18Z"/></svg>