<svg id="Layer_1" xmlns="http://www.w3.org/2000/svg" viewBox="0 0 69.36 32.52"><path d="M0,32.52V.6h8.22l.3,5.76h.48c1-2.04,2.52-3.61,4.56-4.71,2.04-1.1,4.36-1.65,6.96-1.65,2.84,0,5.27.63,7.29,1.89s3.45,3.09,4.29,5.49h.54c1.2-2.52,2.89-4.38,5.07-5.58s4.69-1.8,7.53-1.8c4.16,0,7.39,1.2,9.69,3.6s3.45,6.1,3.45,11.1v17.82h-8.52V15.84c0-2.88-.54-5.15-1.62-6.81-1.08-1.66-3.06-2.49-5.94-2.49-2.72,0-4.88.87-6.48,2.61s-2.4,3.99-2.4,6.75v16.62h-8.52v-16.44c0-3-.57-5.34-1.71-7.02s-3.07-2.52-5.79-2.52-5.03.87-6.57,2.61c-1.54,1.74-2.31,3.99-2.31,6.75v16.62s-8.52,0-8.52,0Z"/><path d="M60.9,32.52v-7.2h8.46v7.2h-8.46Z"/></svg>
