<?xml version="1.0" encoding="utf-8"?>
<svg id="Layer_1" data-name="Layer 1" xmlns="http://www.w3.org/2000/svg" viewBox="0 0 1289.92 122.67"><defs><style>.cls-1{fill:#545454;}</style></defs><title>logo</title><path class="cls-1" d="M563,557.52H543.89v44H517.77V478.81h57.38c25.56,0,41.2,16.73,41.2,39.54,0,21.7-13.61,33.28-26.85,36.41l27.58,46.71h-30Zm8.28-56.28h-27.4v33.84h27.4c10.48,0,18.39-6.62,18.39-16.92S581.77,501.24,571.29,501.24Z" transform="translate(-367.04 -478.81)"/><path class="cls-1" d="M725.07,550H667.14v51.49H641V478.81h26.11V527h57.93V478.81h26.3V601.47h-26.3Z" transform="translate(-367.04 -478.81)"/><path class="cls-1" d="M775.21,478.81h26.12V601.47H775.21Z" transform="translate(-367.04 -478.81)"/><path class="cls-1" d="M860.92,501.79H825.06v-23H922.9v23H887.22v99.68h-26.3Z" transform="translate(-367.04 -478.81)"/><path class="cls-1" d="M946.64,478.81h86.8v22.43H972.75v26.67h59.4v22.44h-59.4v28.5h60.69v22.62h-86.8Z" transform="translate(-367.04 -478.81)"/><path class="cls-1" d="M1092.28,552.37l-9.56,11.4v37.7H1056.6V478.81h26.12v54.8l43.4-54.8h32.18l-48.73,57.56,52,65.1h-32.18Z" transform="translate(-367.04 -478.81)"/><path class="cls-1" d="M1217.52,501.79h-35.86v-23h97.84v23h-35.68v99.68h-26.3Z" transform="translate(-367.04 -478.81)"/><path class="cls-1" d="M1302.73,478.81h26.11V601.47h-26.11Z" transform="translate(-367.04 -478.81)"/><path class="cls-1" d="M1504.91,478.81h64.56c23.35,0,35.31,14.89,35.31,31.26,0,15.45-9.57,25.75-21.15,28.14,13.06,2,23.54,14.71,23.54,30.16,0,18.39-12.32,33.1-35.68,33.1h-66.58Zm58.86,49.28c8.82,0,14.34-5.7,14.34-13.61,0-7.54-5.52-13.42-14.34-13.42H1531v27Zm.91,51.13c9.94,0,15.82-5.7,15.82-14.53,0-7.72-5.52-14.34-15.82-14.34H1531v28.87Z" transform="translate(-367.04 -478.81)"/><path class="cls-1" d="M1630.84,478.81H1657V601.47h-26.12Z" transform="translate(-367.04 -478.81)"/><polygon class="cls-1" points="80.18 0 47.45 0 0 122.67 28.69 122.67 36.41 101.52 43.4 78.9 63.82 22.62 84.05 78.9 91.22 101.52 98.94 122.67 127.45 122.67 80.18 0"/><polygon class="cls-1" points="1066.2 0 1033.47 0 986.02 122.67 1014.71 122.67 1022.43 101.52 1029.42 78.9 1049.84 22.62 1070.07 78.9 1077.24 101.52 1084.96 122.67 1113.47 122.67 1066.2 0"/></svg>