<svg id="Layer_1" data-name="Layer 1" xmlns="http://www.w3.org/2000/svg" viewBox="0 0 1428.89 276.4"><defs><style>.cls-1{fill:#131718;}</style></defs><title>logo</title><path class="cls-1" d="M778.12-258a15,15,0,0,0-14.94,15.1,15,15,0,0,0,14.94,15.11,15,15,0,0,0,14.94-15.11A15,15,0,0,0,778.12-258" transform="translate(357.9 347.77)"/><path class="cls-1" d="M-248.18-331h-.9a20.27,20.27,0,0,1-8.48,1.35c-1.78,0-3.61-.07-5.44-.07h-94.9v.77c15.12,4.87,13.35,23.56,13.35,35.36V-197c0,11.51,1.77,30.49-13.35,35.1v.77h123.64l13.35-33.56h-.88c-13.17,10-30.78,15.37-48.26,15.37q-3.31,0-6.6-.25l-37.64-3.07v-60.71h23.72c9,0,20.16.22,24.59,7.17h.9v-27.16h-.9c-3.56,1.54-8.3,1.54-13,1.54h-35.27v-47.65c9.48-1.55,19.83-1.78,30.23-1.78,13.62,0,25.8,1,35,10.24h.9Z" transform="translate(357.9 347.77)"/><path class="cls-1" d="M33.51-329.68H-37v.77c15.11,4.87,13,23.56,13,35.36V-197c0,11.52,2.08,30.49-13,35.1v.77H19.57v-.77C4.45-166.5,6.23-185.2,6.23-197V-311.75A181.59,181.59,0,0,1,26.4-313.8c.67,0,1.35,0,2,0,19.07,0,36.23,10.66,36.23,28.48,0,24.08-27.58,33.56-51.29,36.64l27.27,36.11,36.17,38.67c8.89,9.47,18.69,12.82,34.4,12.82h27.26c-16.87-9.23-35.57-22.54-48-35.87L47.74-243.34c24.3-4.88,47.14-22.55,47.14-45.09,0-23.32-21.65-41.25-61.37-41.25" transform="translate(357.9 347.77)"/><path class="cls-1" d="M-131.79-265.13a15,15,0,0,0-15,15.1,15,15,0,0,0,15,15.1A15,15,0,0,0-116.86-250a15,15,0,0,0-14.93-15.1" transform="translate(357.9 347.77)"/><path class="cls-1" d="M201.5-265.13A15,15,0,0,0,186.56-250a15,15,0,0,0,14.94,15.1A15,15,0,0,0,216.44-250a15,15,0,0,0-14.94-15.1" transform="translate(357.9 347.77)"/><path class="cls-1" d="M962-333.83c-60.93,0-108.33,40.23-108.33,88.15,0,52.52,49.48,88.89,108.19,88.89,59,0,109.12-37.9,109.12-90.16,0-46-43.6-86.85-105.58-86.85h-.58l-2.82,0m1.35,158.6c-46.56,0-75.9-36.88-75.9-72.75,0-38.67,29.34-67.37,75.28-67.37,46.86,0,74.47,36.12,74.47,73.52,0,38.16-28.78,66.6-73.85,66.6" transform="translate(357.9 347.77)"/><path class="cls-1" d="M619.14-347.77a133.25,133.25,0,0,0-25.62,2.46c-46.89,9.22-80.78,26.38-121.71,71.65-10.33,4.64-19.64,7.88-28.54,7.88a33.14,33.14,0,0,1-8.94-1.19,45.34,45.34,0,0,1,9.68,26.9c-15.73,25.1-50.12,70.69-97.35,80A134.49,134.49,0,0,1,321-157.3c-23.11,0-33.86-8.65-35.91-19.26-.9-4.78-.76-8.92,1-12.31a19.07,19.07,0,0,0,4.09.42,18.52,18.52,0,0,0,3.54-.32c8.78-1.73,15.64-8.36,14-16.82-1.46-7.51-8.29-10.63-16.57-10.63a39.46,39.46,0,0,0-7.66.79c-15.39,3-24,16-21.19,30.39,5.17,26.9,41.19,42.94,79.43,42.94a133.25,133.25,0,0,0,25.62-2.46c49.65-9.76,84.65-28.33,128.93-79.84,9.31-4,17.8-6.72,25.93-6.72a33,33,0,0,1,8.93,1.19,45.46,45.46,0,0,1-9.66-27c17.27-25.78,49.64-64.39,92.73-72.84A133.8,133.8,0,0,1,640-332.57c23.07,0,33.77,8.65,35.82,19.25.94,4.8.82,8.93-1,12.32a19,19,0,0,0-4.07-.42,19.62,19.62,0,0,0-3.57.32c-8.79,1.71-15.64,8.36-14,16.81,1.44,7.52,8.26,10.64,16.57,10.64a39.64,39.64,0,0,0,7.67-.79c15.42-3,24-16,21.18-30.38-5.17-26.92-41.2-42.95-79.42-42.95" transform="translate(357.9 347.77)"/><polygon class="cls-1" points="20.43 249.63 5.53 249.63 5.53 260.32 20.43 260.32 20.43 263.01 5.53 263.01 5.53 273.7 20.43 273.7 20.43 276.4 2.83 276.4 2.83 246.94 20.43 246.94 20.43 249.63"/><polygon class="cls-1" points="66.84 249.63 51.94 249.63 51.94 260.32 66.84 260.32 66.84 263.01 51.94 263.01 51.94 273.7 66.84 273.7 66.84 276.4 49.25 276.4 49.25 246.94 66.84 246.94 66.84 249.63"/><path class="cls-1" d="M-262.94-96.41a7.25,7.25,0,0,1,1.88-2.42,8,8,0,0,1,2.75-1.5,11.06,11.06,0,0,1,3.31-.5,10.5,10.5,0,0,1,2.92.4,8.33,8.33,0,0,1,2.59,1.22,8.31,8.31,0,0,1,2.06,2.08A9.94,9.94,0,0,1-246-94.18l-2.52,1A6.2,6.2,0,0,0-251-97a7.1,7.1,0,0,0-4-1.14,6.52,6.52,0,0,0-4.3,1.37,4.55,4.55,0,0,0-1.64,3.68,4.3,4.3,0,0,0,.53,2.23A4.92,4.92,0,0,0-259-89.34a9.3,9.3,0,0,0,2.06,1.07c.77.29,1.58.58,2.42.86,1.07.34,2.09.72,3.07,1.14a10.5,10.5,0,0,1,2.61,1.56A6.84,6.84,0,0,1-247-82.46a7.12,7.12,0,0,1,.68,3.26,7.9,7.9,0,0,1-.7,3.45,6.81,6.81,0,0,1-1.87,2.44,8,8,0,0,1-2.71,1.45,10.47,10.47,0,0,1-3.22.49,12.05,12.05,0,0,1-2.66-.32,8.89,8.89,0,0,1-2.65-1.07,8.45,8.45,0,0,1-2.27-2,8.58,8.58,0,0,1-1.52-3.2l2.36-1.26a6.57,6.57,0,0,0,2.51,3.93,7.12,7.12,0,0,0,4.18,1.25,8,8,0,0,0,2.32-.32,5.5,5.5,0,0,0,1.85-1,4.2,4.2,0,0,0,1.24-1.58,5.07,5.07,0,0,0,.44-2.21,4.64,4.64,0,0,0-.54-2.33A5.23,5.23,0,0,0-251-83a8.1,8.1,0,0,0-2-1c-.73-.27-1.46-.51-2.19-.74-1-.31-2-.66-3-1a10.42,10.42,0,0,1-2.73-1.54,7.51,7.51,0,0,1-2-2.33,6.88,6.88,0,0,1-.78-3.41,7.46,7.46,0,0,1,.69-3.28" transform="translate(357.9 347.77)"/><polygon class="cls-1" points="150.07 276.4 147.37 276.4 147.37 249.63 135.34 249.63 135.34 246.94 162.15 246.94 162.15 249.63 150.07 249.63 150.07 276.4"/><rect class="cls-1" x="188.99" y="246.94" width="2.69" height="29.46"/><path class="cls-1" d="M-100.07-71.37v-29.46h10.86a11.34,11.34,0,0,1,4.1.71,9.35,9.35,0,0,1,3.16,2,9.11,9.11,0,0,1,2,3.08,10.43,10.43,0,0,1,.71,3.91,9.78,9.78,0,0,1-1.55,5.53A9,9,0,0,1-85-82.15l8.76,10.78h-3.54l-8.12-10.1-.65.06-.65,0h-8.17v10Zm7.83-15.49,2.1-1.64,3.32,4.08a6.48,6.48,0,0,0,3.6-2.42,6.92,6.92,0,0,0,1.33-4.27,7.41,7.41,0,0,0-.53-2.84,6.39,6.39,0,0,0-1.49-2.21,7,7,0,0,0-2.32-1.45,8.11,8.11,0,0,0-3-.53h-8.17v14.06H-90Z" transform="translate(357.9 347.77)"/><rect class="cls-1" x="308.49" y="246.94" width="2.69" height="29.46"/><rect class="cls-1" x="341.18" y="246.94" width="2.69" height="29.46"/><polygon class="cls-1" points="376.57 267.01 376.57 276.4 373.88 276.4 373.88 246.94 376.57 246.94 376.57 263.18 392.57 246.94 396.35 246.94 383.81 259.64 396.61 276.4 393.2 276.4 381.88 261.63 376.57 267.01"/><polygon class="cls-1" points="426.14 273.7 441.38 273.7 441.38 276.4 423.45 276.4 423.45 246.94 426.14 246.94 426.14 273.7"/><rect class="cls-1" x="468.64" y="246.94" width="2.69" height="29.46"/><polygon class="cls-1" points="504.03 267.01 504.03 276.4 501.33 276.4 501.33 246.94 504.03 246.94 504.03 263.18 520.02 246.94 523.81 246.94 511.27 259.64 524.06 276.4 520.65 276.4 509.33 261.63 504.03 267.01"/><path class="cls-1" d="M228.45-96.41a7.25,7.25,0,0,1,1.88-2.42,8,8,0,0,1,2.75-1.5,11,11,0,0,1,3.31-.5,10.5,10.5,0,0,1,2.92.4,8.43,8.43,0,0,1,2.59,1.22A8.49,8.49,0,0,1,244-97.13a10.19,10.19,0,0,1,1.39,2.95l-2.52,1A6.2,6.2,0,0,0,240.36-97a7.1,7.1,0,0,0-4-1.14,6.52,6.52,0,0,0-4.3,1.37,4.55,4.55,0,0,0-1.64,3.68,4.3,4.3,0,0,0,.53,2.23,4.92,4.92,0,0,0,1.43,1.52,9.3,9.3,0,0,0,2.06,1.07c.77.29,1.58.58,2.42.86,1.07.34,2.09.72,3.07,1.14a10.5,10.5,0,0,1,2.61,1.56,6.84,6.84,0,0,1,1.81,2.25,7.12,7.12,0,0,1,.68,3.26,8,8,0,0,1-.7,3.45,6.92,6.92,0,0,1-1.87,2.44,7.91,7.91,0,0,1-2.72,1.45,10.38,10.38,0,0,1-3.22.49,12,12,0,0,1-2.65-.32,8.89,8.89,0,0,1-2.65-1.07,8.45,8.45,0,0,1-2.27-2,8.58,8.58,0,0,1-1.52-3.2l2.36-1.26a6.61,6.61,0,0,0,2.5,3.93,7.17,7.17,0,0,0,4.19,1.25,8.08,8.08,0,0,0,2.32-.32,5.5,5.5,0,0,0,1.85-1,4.2,4.2,0,0,0,1.24-1.58,5.07,5.07,0,0,0,.44-2.21,4.64,4.64,0,0,0-.54-2.33A5.23,5.23,0,0,0,240.41-83a8.1,8.1,0,0,0-2-1c-.73-.27-1.46-.51-2.19-.74-1-.31-2-.66-3-1a10.42,10.42,0,0,1-2.73-1.54,7.51,7.51,0,0,1-2-2.33,6.88,6.88,0,0,1-.78-3.41,7.46,7.46,0,0,1,.69-3.28" transform="translate(357.9 347.77)"/><path class="cls-1" d="M300.1-84.71a13.64,13.64,0,0,1-1,5.3,13.17,13.17,0,0,1-2.82,4.23,13,13,0,0,1-4.26,2.8,13.92,13.92,0,0,1-5.32,1,13.75,13.75,0,0,1-5.3-1,13.16,13.16,0,0,1-4.25-2.8,12.75,12.75,0,0,1-2.84-4.23,13.47,13.47,0,0,1-1-5.3v-16.12h2.7v16.12a10.68,10.68,0,0,0,.82,4.21A10.55,10.55,0,0,0,279-77.14a10.14,10.14,0,0,0,3.41,2.25,11,11,0,0,0,4.25.83,10.87,10.87,0,0,0,4.27-.83,10.15,10.15,0,0,0,3.39-2.25,10.55,10.55,0,0,0,2.25-3.36,10.68,10.68,0,0,0,.82-4.21v-16.12h2.7Zm-19.28-21.93a2.28,2.28,0,0,1,1.68-.67,2.32,2.32,0,0,1,1.67.67,2.25,2.25,0,0,1,.69,1.68,2.26,2.26,0,0,1-.69,1.66,2.27,2.27,0,0,1-1.67.7,2.23,2.23,0,0,1-1.68-.7,2.28,2.28,0,0,1-.67-1.66,2.28,2.28,0,0,1,.67-1.68m8.35,0a2.32,2.32,0,0,1,1.67-.67,2.28,2.28,0,0,1,1.68.67,2.28,2.28,0,0,1,.67,1.68,2.28,2.28,0,0,1-.67,1.66,2.23,2.23,0,0,1-1.68.7,2.27,2.27,0,0,1-1.67-.7,2.26,2.26,0,0,1-.69-1.66,2.25,2.25,0,0,1,.69-1.68" transform="translate(357.9 347.77)"/><polygon class="cls-1" points="687.57 276.4 687.57 246.94 690.31 246.94 705.42 272.95 720.53 246.94 723.26 246.94 723.26 276.4 720.57 276.4 720.57 252.41 706.6 276.4 704.2 276.4 690.27 252.41 690.27 276.4 687.57 276.4"/><polygon class="cls-1" points="770.85 249.63 755.95 249.63 755.95 260.32 770.85 260.32 770.85 263.01 755.95 263.01 755.95 276.4 753.26 276.4 753.26 246.94 770.85 246.94 770.85 249.63"/><path class="cls-1" d="M441.12-91.95a14,14,0,0,1,3.09-4.67,14.28,14.28,0,0,1,4.67-3.1,15.24,15.24,0,0,1,5.85-1.11,15.37,15.37,0,0,1,5.87,1.11,14,14,0,0,1,4.67,3.1,14.29,14.29,0,0,1,3.08,4.67,15.16,15.16,0,0,1,1.11,5.85,15.24,15.24,0,0,1-1.11,5.85,14.5,14.5,0,0,1-3.08,4.67,13.8,13.8,0,0,1-4.67,3.09,15.19,15.19,0,0,1-5.87,1.12,15.06,15.06,0,0,1-5.85-1.12,14.1,14.1,0,0,1-4.67-3.09,14.2,14.2,0,0,1-3.09-4.67A15.06,15.06,0,0,1,440-86.1a15,15,0,0,1,1.12-5.85m24.74,1a11.57,11.57,0,0,0-2.5-3.81,11.42,11.42,0,0,0-3.81-2.5,12.46,12.46,0,0,0-4.82-.91,12.46,12.46,0,0,0-4.82.91,11.42,11.42,0,0,0-3.81,2.5,11.57,11.57,0,0,0-2.5,3.81,12.46,12.46,0,0,0-.91,4.82,12.5,12.5,0,0,0,.91,4.82,11.57,11.57,0,0,0,2.5,3.81,11.57,11.57,0,0,0,3.81,2.5,12.65,12.65,0,0,0,4.82.91,12.65,12.65,0,0,0,4.82-.91,11.57,11.57,0,0,0,3.81-2.5,11.57,11.57,0,0,0,2.5-3.81,12.5,12.5,0,0,0,.91-4.82,12.46,12.46,0,0,0-.91-4.82" transform="translate(357.9 347.77)"/><path class="cls-1" d="M498.05-91.95a14,14,0,0,1,3.09-4.67,14.39,14.39,0,0,1,4.67-3.1,15.24,15.24,0,0,1,5.85-1.11,15.34,15.34,0,0,1,5.87,1.11,14,14,0,0,1,4.67,3.1,14.29,14.29,0,0,1,3.08,4.67,15.16,15.16,0,0,1,1.11,5.85,15.24,15.24,0,0,1-1.11,5.85,14.5,14.5,0,0,1-3.08,4.67,13.8,13.8,0,0,1-4.67,3.09,15.16,15.16,0,0,1-5.87,1.12,15.06,15.06,0,0,1-5.85-1.12,14.2,14.2,0,0,1-4.67-3.09,14.2,14.2,0,0,1-3.09-4.67,15.06,15.06,0,0,1-1.12-5.85,15,15,0,0,1,1.12-5.85m24.74,1a11.42,11.42,0,0,0-2.5-3.81,11.42,11.42,0,0,0-3.81-2.5,12.46,12.46,0,0,0-4.82-.91,12.5,12.5,0,0,0-4.82.91,11.42,11.42,0,0,0-3.81,2.5,11.57,11.57,0,0,0-2.5,3.81,12.65,12.65,0,0,0-.91,4.82,12.69,12.69,0,0,0,.91,4.82,11.57,11.57,0,0,0,2.5,3.81,11.57,11.57,0,0,0,3.81,2.5,12.69,12.69,0,0,0,4.82.91,12.65,12.65,0,0,0,4.82-.91,11.57,11.57,0,0,0,3.81-2.5,11.42,11.42,0,0,0,2.5-3.81,12.5,12.5,0,0,0,.91-4.82,12.46,12.46,0,0,0-.91-4.82" transform="translate(357.9 347.77)"/><polygon class="cls-1" points="938.62 276.4 935.92 276.4 915 251.27 915 276.4 912.31 276.4 912.31 246.94 915 246.94 935.92 272.1 935.92 246.94 938.62 246.94 938.62 276.4"/><rect class="cls-1" x="968.32" y="246.94" width="2.69" height="29.46"/><path class="cls-1" d="M645.6-76.76l-2.49,5.39h-3l13.73-29.46h2.82l13.72,29.46h-3L665-76.76Zm18.09-2.69-8.41-18.14-8.42,18.14Z" transform="translate(357.9 347.77)"/><path class="cls-1" d="M695-91.95a14,14,0,0,1,3.09-4.67,14.28,14.28,0,0,1,4.67-3.1,15.24,15.24,0,0,1,5.85-1.11,15.37,15.37,0,0,1,5.87,1.11,14,14,0,0,1,4.67,3.1,14.29,14.29,0,0,1,3.08,4.67,15.16,15.16,0,0,1,1.11,5.85,15.24,15.24,0,0,1-1.11,5.85,14.5,14.5,0,0,1-3.08,4.67,13.8,13.8,0,0,1-4.67,3.09,15.19,15.19,0,0,1-5.87,1.12,15.06,15.06,0,0,1-5.85-1.12,14.1,14.1,0,0,1-4.67-3.09A14.2,14.2,0,0,1,695-80.25a15.06,15.06,0,0,1-1.12-5.85A15,15,0,0,1,695-91.95m24.74,1a11.57,11.57,0,0,0-2.5-3.81,11.42,11.42,0,0,0-3.81-2.5,12.46,12.46,0,0,0-4.82-.91,12.46,12.46,0,0,0-4.82.91,11.42,11.42,0,0,0-3.81,2.5,11.57,11.57,0,0,0-2.5,3.81,12.46,12.46,0,0,0-.91,4.82,12.5,12.5,0,0,0,.91,4.82,11.57,11.57,0,0,0,2.5,3.81,11.57,11.57,0,0,0,3.81,2.5,12.65,12.65,0,0,0,4.82.91,12.65,12.65,0,0,0,4.82-.91,11.57,11.57,0,0,0,3.81-2.5,11.57,11.57,0,0,0,2.5-3.81,12.5,12.5,0,0,0,.91-4.82,12.46,12.46,0,0,0-.91-4.82" transform="translate(357.9 347.77)"/><path class="cls-1" d="M751.67-71.37v-29.46h10.86a11.36,11.36,0,0,1,4.11.71,9.21,9.21,0,0,1,3.15,2,8.82,8.82,0,0,1,2,3.08,10.24,10.24,0,0,1,.72,3.91A9.71,9.71,0,0,1,771-85.58a9,9,0,0,1-4.25,3.43l8.76,10.78H772l-8.12-10.1-.65.06-.66,0h-8.16v10Zm7.83-15.49,2.11-1.64,3.32,4.08a6.48,6.48,0,0,0,3.6-2.42,7,7,0,0,0,1.33-4.27,7.41,7.41,0,0,0-.53-2.84,6.39,6.39,0,0,0-1.49-2.21,7,7,0,0,0-2.32-1.45,8.16,8.16,0,0,0-3-.53h-8.16v14.06h7.36Z" transform="translate(357.9 347.77)"/><polygon class="cls-1" points="1162.93 267.01 1162.93 276.4 1160.24 276.4 1160.24 246.94 1162.93 246.94 1162.93 263.18 1178.92 246.94 1182.71 246.94 1170.17 259.64 1182.96 276.4 1179.55 276.4 1168.23 261.63 1162.93 267.01"/><polygon class="cls-1" points="1227.4 249.63 1212.5 249.63 1212.5 260.32 1227.4 260.32 1227.4 263.01 1212.5 263.01 1212.5 273.7 1227.4 273.7 1227.4 276.4 1209.8 276.4 1209.8 246.94 1227.4 246.94 1227.4 249.63"/><path class="cls-1" d="M897.62-96.41a7.35,7.35,0,0,1,1.87-2.42,8.19,8.19,0,0,1,2.76-1.5,11,11,0,0,1,3.31-.5,10.5,10.5,0,0,1,2.92.4,8.43,8.43,0,0,1,2.59,1.22,8.49,8.49,0,0,1,2.06,2.08,10.19,10.19,0,0,1,1.39,2.95l-2.53,1A6.15,6.15,0,0,0,909.53-97a7.1,7.1,0,0,0-4-1.14,6.52,6.52,0,0,0-4.3,1.37,4.55,4.55,0,0,0-1.64,3.68,4.3,4.3,0,0,0,.53,2.23,4.8,4.8,0,0,0,1.43,1.52,9.3,9.3,0,0,0,2.06,1.07c.77.29,1.58.58,2.42.86,1.07.34,2.09.72,3.07,1.14a10.69,10.69,0,0,1,2.61,1.56,6.84,6.84,0,0,1,1.81,2.25,7.12,7.12,0,0,1,.67,3.26,8,8,0,0,1-.69,3.45,6.92,6.92,0,0,1-1.87,2.44,7.91,7.91,0,0,1-2.72,1.45,10.38,10.38,0,0,1-3.22.49,12,12,0,0,1-2.65-.32,8.89,8.89,0,0,1-2.65-1.07,8.45,8.45,0,0,1-2.27-2,8.43,8.43,0,0,1-1.52-3.2L899-79.24a6.61,6.61,0,0,0,2.5,3.93,7.17,7.17,0,0,0,4.19,1.25,8.13,8.13,0,0,0,2.32-.32,5.5,5.5,0,0,0,1.85-1,4.2,4.2,0,0,0,1.24-1.58,5.22,5.22,0,0,0,.44-2.21,4.54,4.54,0,0,0-.55-2.33A5,5,0,0,0,909.57-83a7.85,7.85,0,0,0-2-1c-.73-.27-1.46-.51-2.19-.74-1-.31-2-.66-3-1a10.64,10.64,0,0,1-2.74-1.54,7.48,7.48,0,0,1-2-2.33,6.88,6.88,0,0,1-.78-3.41,7.46,7.46,0,0,1,.69-3.28" transform="translate(357.9 347.77)"/><polygon class="cls-1" points="1310.63 276.4 1307.93 276.4 1307.93 249.63 1295.89 249.63 1295.89 246.94 1322.7 246.94 1322.7 249.63 1310.63 249.63 1310.63 276.4"/><polygon class="cls-1" points="1367.14 249.63 1352.24 249.63 1352.24 260.32 1367.14 260.32 1367.14 263.01 1352.24 263.01 1352.24 273.7 1367.14 273.7 1367.14 276.4 1349.55 276.4 1349.55 246.94 1367.14 246.94 1367.14 249.63"/><path class="cls-1" d="M1038.06-71.37v-29.46h10.86a11.34,11.34,0,0,1,4.1.71,9.35,9.35,0,0,1,3.16,2,9.11,9.11,0,0,1,2,3.08,10.43,10.43,0,0,1,.71,3.91,9.71,9.71,0,0,1-1.56,5.53,9,9,0,0,1-4.24,3.43l8.75,10.78h-3.54l-8.12-10.1-.65.06-.65,0h-8.17v10Zm7.82-15.49L1048-88.5l3.33,4.08a6.49,6.49,0,0,0,3.59-2.42,6.92,6.92,0,0,0,1.33-4.27,7.41,7.41,0,0,0-.53-2.84,6.39,6.39,0,0,0-1.49-2.21,7,7,0,0,0-2.32-1.45,8.11,8.11,0,0,0-3-.53h-8.17v14.06h7.37Z" transform="translate(357.9 347.77)"/></svg>