<svg width="119" height="130" viewBox="0 0 119 130" fill="none" xmlns="http://www.w3.org/2000/svg">
<g clip-path="url(#clip0_103_588)">
<path d="M0.156725 -0.000610352H118.475C118.475 -0.000610352 128.643 89.9696 59.3149 129.999C59.3149 129.999 -3.54219 98.8954 0.154975 -0.000610352" fill="white"/>
<path d="M5.41847 4.60443H112.551C112.551 4.60443 121.758 86.0686 58.9848 122.313C58.9848 122.313 2.07072 94.1503 5.41847 4.60443Z" fill="#0072B9"/>
<path d="M67.7162 37.19C67.7162 37.19 59.15 4.4701 59.15 4.79953C59.15 6.44898 51.0218 37.0614 51.0218 37.0614C51.0218 37.0614 44.1881 68.8926 24.7578 87.9774C24.7578 87.9774 35.8493 109.622 58.9843 122.31C58.9843 122.31 78.2069 114.112 94.1109 88.1818C94.1109 88.1818 79.0516 76.3183 67.7162 37.1871" fill="#DEDEDE"/>
<path d="M16.6992 8.93507C19.2008 8.73291 21.7189 8.93964 24.153 9.54703C30.6922 11.2202 35.7164 15.8461 37.2885 17.3792C42.9976 23.2262 47.5942 30.0498 50.8563 37.5206C50.0338 40.959 48.7388 43.9685 47.4659 47.8336C46.0782 52.0496 44.3836 56.6338 42.8699 60.1318C40.9641 57.2035 38.1618 52.0009 34.2505 46.6467C29.5494 40.211 27.1992 36.9932 25.0339 34.5239C19.6672 28.3985 16.3877 24.5832 13.6104 18.6158C12.8352 16.9502 12.7792 14.6992 13.4028 14.0809C14.0264 13.4625 15.2694 15.3181 15.2694 15.3181C15.2694 15.3181 17.3584 17.6704 18.1774 18.4097C19.0734 19.2203 21.8739 20.5334 22.5395 20.0592C22.7669 19.9054 22.9437 19.6885 23.0476 19.4357C23.3848 18.5672 22.5745 17.3954 21.2976 16.142C17.3414 12.2629 12.3201 11.0599 12.4957 9.97836C12.6194 9.21413 15.2531 9.03408 16.7015 8.93623" fill="#DEDEDE"/>
<path d="M16.6992 8.93507C19.2008 8.73291 21.7189 8.93964 24.153 9.54703C30.6922 11.2202 35.7164 15.8461 37.2885 17.3792C42.9976 23.2262 47.5942 30.0498 50.8563 37.5206C50.0338 40.959 48.7388 43.9685 47.4659 47.8336C46.0782 52.0496 44.3836 56.6338 42.8699 60.1318C40.9641 57.2035 38.1618 52.0009 34.2505 46.6467C29.5494 40.211 27.1992 36.9932 25.0339 34.5239C19.6672 28.3985 16.3877 24.5832 13.6104 18.6158C12.8352 16.9502 12.7792 14.6992 13.4028 14.0809C14.0264 13.4625 15.2694 15.3181 15.2694 15.3181C15.2694 15.3181 17.3584 17.6704 18.1774 18.4097C19.0734 19.2203 21.8739 20.5334 22.5395 20.0592C22.7669 19.9054 22.9437 19.6885 23.0476 19.4357C23.3848 18.5672 22.5745 17.3954 21.2976 16.142C17.3414 12.2629 12.3201 11.0599 12.4957 9.97836C12.6194 9.21413 15.2531 9.03408 16.7015 8.93623" stroke="#0072BA" stroke-width="1.4" stroke-linejoin="round"/>
<path d="M36.7432 50.4678L34.3545 57.4182L40.0128 66.1113L43.2649 60.2812L36.7432 50.4678Z" fill="#DEDEDE"/>
<path d="M36.7432 50.4678L34.3545 57.4182L40.0128 66.1113L43.2649 60.2812L36.7432 50.4678Z" stroke="#0072BA" stroke-width="1.4" stroke-miterlimit="10"/>
<path d="M39.1821 54.1378L36.1436 60.1324" stroke="#0072BA" stroke-width="1.4" stroke-miterlimit="10"/>
<path d="M41.1747 57.1351L38.0049 62.9559" stroke="#0072BA" stroke-width="1.4" stroke-miterlimit="10"/>
<path d="M50.5822 36.5717C51.5107 38.8415 52.2779 41.1731 52.8782 43.5493C55.1731 52.1723 57.8033 68.155 53.5672 87.8975C53.5672 87.8975 51.9052 102.797 54.3978 109.626C54.3978 109.626 48.1118 106.108 44.4007 96.5889C44.4007 96.5889 37.7816 93.2784 34.3545 86.449C34.3545 86.449 41.1748 85.4149 45.0878 80.6547C45.0878 80.6547 48.8795 74.3441 42.8712 59.4955L51.0227 36.7812C53.2772 38.6165 56.7131 41.1611 58.0197 42.1876C58.7944 42.7966 60.1483 42.5755 60.8781 42.1829L68.0035 36.5717C65.7242 42.5763 64.2037 48.8382 63.4768 55.2141L59.3445 57.7083L55.1089 55.2141C54.7297 51.8489 54.127 48.5123 53.3047 45.2259C52.5697 42.2905 51.6606 39.4007 50.5822 36.5717Z" fill="#0072B9"/>
<path d="M50.5822 36.8524C51.5105 39.1132 52.2778 41.436 52.8782 43.8034C55.1731 52.3929 57.8033 68.3125 53.5672 87.978C53.5672 87.978 51.9052 102.82 54.3978 109.623C54.3978 109.623 48.1118 106.119 44.4007 96.6357C44.4007 96.6357 37.7816 93.3357 34.3545 86.5346C34.3545 86.5346 41.1748 85.5047 45.0878 80.7624C45.0878 80.7624 48.8795 74.4767 42.8712 59.6848L51.0227 37.0615C53.2772 38.8898 56.7131 41.4245 58.0197 42.4458C58.7944 43.0525 60.1483 42.8325 60.8781 42.4411L68.0035 36.8519C65.7246 42.8318 64.204 49.07 63.4768 55.4226L59.3445 57.9074L55.1089 55.4231C54.7296 52.0707 54.1269 48.747 53.3047 45.4737C52.5696 42.5491 51.6605 39.6703 50.5822 36.8524Z" stroke="#C5C7C6" stroke-width="1.4" stroke-miterlimit="10"/>
<path d="M47.4658 47.8336C47.4658 47.8336 52.7357 67.158 49.4118 81.1758L53.5657 87.9786" stroke="#C5C7C6" stroke-width="1.4" stroke-miterlimit="10" stroke-linejoin="round"/>
<path d="M45.0859 80.7642L49.4131 81.1764" stroke="#C5C7C6" stroke-width="1.4" stroke-miterlimit="10"/>
<path d="M28.0758 17.8638C29.0674 17.8638 29.8713 17.0659 29.8713 16.0817C29.8713 15.0975 29.0674 14.2997 28.0758 14.2997C27.0841 14.2997 26.2803 15.0975 26.2803 16.0817C26.2803 17.0659 27.0841 17.8638 28.0758 17.8638Z" fill="#0072BA"/>
<path d="M37.792 17.8643C38.7334 22.4651 39.0097 27.1756 38.6127 31.8537C38.6127 31.8537 46.8447 43.0913 47.4666 47.833" stroke="#0072BA" stroke-width="1.4" stroke-miterlimit="10"/>
<path d="M37.029 36.5717L36.7432 51.0346C36.7432 51.0346 44.3749 49.307 47.2432 46.8048" stroke="#0072BA" stroke-width="1.4" stroke-miterlimit="10"/>
<path d="M38.6123 36.5717C38.6123 36.5717 40.612 43.9366 40.6855 49.9329" stroke="#0072BA" stroke-width="1.4" stroke-miterlimit="10"/>
<path d="M39.6494 36.5717C39.6494 36.5717 43.2847 43.679 44.4007 48.5173" stroke="#0072BA" stroke-width="1.4" stroke-miterlimit="10"/>
<path d="M17.9727 25.9964C17.9727 25.9964 27.3445 32.5519 38.6127 31.8566" stroke="#0072BA" stroke-width="1.4" stroke-miterlimit="10"/>
<path d="M44.4005 63.9095L42.1839 69.4299L40.0156 66.1096L42.874 60.1307L44.4005 63.9095Z" fill="#0072B9"/>
<path d="M52.5059 42.5447C52.7841 43.5562 59.4353 46.5749 59.4353 46.5749" stroke="#C5C7C6" stroke-width="1.4" stroke-miterlimit="10"/>
<path d="M59.3867 52.4502C59.3867 52.4502 55.1313 50.5923 54.2207 49.9323" stroke="#C5C7C6" stroke-width="1.4" stroke-miterlimit="10"/>
<path d="M59.1503 54.9779L54.7578 52.7437" stroke="#C5C7C6" stroke-width="1.4" stroke-miterlimit="10"/>
<path d="M101.884 8.93503C99.3828 8.73306 96.8653 8.93979 94.4318 9.54699C87.8926 11.2202 82.8672 15.8461 81.2963 17.3791C75.5872 23.2262 70.9906 30.0498 67.7285 37.5205C68.551 40.959 69.846 43.9684 71.1189 47.8335C72.5066 52.0495 74.2012 56.6337 75.7149 60.1318C77.6207 57.2034 80.423 52.0009 84.3343 46.6467C89.0354 40.211 91.3856 36.9931 93.5509 34.5239C98.9176 28.3985 102.197 24.5831 104.974 18.6158C105.75 16.9501 105.806 14.6991 105.182 14.0808C104.558 13.4625 103.315 15.3181 103.315 15.3181C103.315 15.3181 101.226 17.6704 100.407 18.4097C99.5114 19.2202 96.7109 20.5333 96.0453 20.0591C95.8181 19.9053 95.6415 19.6884 95.5378 19.4356C95.2006 18.5672 96.0108 17.3954 97.2878 16.1419C101.244 12.2629 106.265 11.0598 106.09 9.97831C105.966 9.21409 103.332 9.03403 101.884 8.93619" fill="#DEDEDE"/>
<path d="M101.884 8.93503C99.3828 8.73306 96.8653 8.93979 94.4318 9.54699C87.8926 11.2202 82.8672 15.8461 81.2963 17.3791C75.5872 23.2262 70.9906 30.0498 67.7285 37.5205C68.551 40.959 69.846 43.9684 71.1189 47.8335C72.5066 52.0495 74.2012 56.6337 75.7149 60.1318C77.6207 57.2034 80.423 52.0009 84.3343 46.6467C89.0354 40.211 91.3856 36.9931 93.5509 34.5239C98.9176 28.3985 102.197 24.5831 104.974 18.6158C105.75 16.9501 105.806 14.6991 105.182 14.0808C104.558 13.4625 103.315 15.3181 103.315 15.3181C103.315 15.3181 101.226 17.6704 100.407 18.4097C99.5114 19.2202 96.7109 20.5333 96.0453 20.0591C95.8181 19.9053 95.6415 19.6884 95.5378 19.4356C95.2006 18.5672 96.0108 17.3954 97.2878 16.1419C101.244 12.2629 106.265 11.0598 106.09 9.97831C105.967 9.21467 103.335 9.03461 101.884 8.93503Z" stroke="#0072BA" stroke-width="1.4" stroke-miterlimit="10"/>
<path d="M81.842 50.4678L84.2307 57.4182L78.5724 66.1113L75.3203 60.2812L81.842 50.4678Z" fill="#DEDEDE"/>
<path d="M81.842 50.4678L84.2307 57.4182L78.5724 66.1113L75.3203 60.2812L81.842 50.4678Z" stroke="#0072BA" stroke-width="1.4" stroke-miterlimit="10"/>
<path d="M79.4023 54.1378L82.4409 60.1324" stroke="#0072BA" stroke-width="1.4" stroke-miterlimit="10"/>
<path d="M77.4102 57.1351L80.58 62.9559" stroke="#0072BA" stroke-width="1.4" stroke-miterlimit="10"/>
<path d="M68.003 36.8524C67.0747 39.1132 66.3075 41.4359 65.707 43.8034C63.4121 52.3928 60.7819 68.3125 65.0181 87.978C65.0181 87.978 66.68 102.82 64.1874 109.623C64.1874 109.623 70.4734 106.118 74.1846 96.6357C74.1846 96.6357 80.8036 93.3356 84.2307 86.5346C84.2307 86.5346 77.4104 85.5046 73.4974 80.7624C73.4974 80.7624 69.7057 74.4766 75.7141 59.6848L67.5626 37.0614" fill="#0072B9"/>
<path d="M68.003 36.8524C67.0747 39.1132 66.3075 41.4359 65.707 43.8034C63.4121 52.3928 60.7819 68.3125 65.0181 87.978C65.0181 87.978 66.68 102.82 64.1874 109.623C64.1874 109.623 70.4734 106.118 74.1846 96.6357C74.1846 96.6357 80.8036 93.3356 84.2307 86.5346C84.2307 86.5346 77.4104 85.5046 73.4974 80.7624C73.4974 80.7624 69.7057 74.4766 75.7141 59.6848L67.5626 37.0614" stroke="#C5C7C6" stroke-width="1.4"/>
<path d="M68.003 36.8524C67.0747 39.1132 66.3075 41.4359 65.707 43.8034C63.4121 52.3928 60.7819 68.3125 65.0181 87.978C65.0181 87.978 66.68 102.82 64.1874 109.623C64.1874 109.623 70.4734 106.118 74.1846 96.6357C74.1846 96.6357 80.8036 93.3356 84.2307 86.5346C84.2307 86.5346 77.4104 85.5046 73.4974 80.7624C73.4974 80.7624 69.7057 74.4766 75.7141 59.6848L67.5626 37.0614" stroke="#C5C7C6" stroke-width="1.4" stroke-miterlimit="10"/>
<path d="M71.1185 47.8336C71.1185 47.8336 65.8486 67.158 69.1725 81.1758L65.0186 87.9786" stroke="#C5C7C6" stroke-width="1.4" stroke-miterlimit="10"/>
<path d="M73.499 80.7642L69.1719 81.1764" stroke="#C5C7C6" stroke-width="1.4" stroke-miterlimit="10"/>
<path d="M90.5094 17.8638C91.501 17.8638 92.3049 17.0659 92.3049 16.0817C92.3049 15.0975 91.501 14.2997 90.5094 14.2997C89.5177 14.2997 88.7139 15.0975 88.7139 16.0817C88.7139 17.0659 89.5177 17.8638 90.5094 17.8638Z" fill="#0072BA"/>
<path d="M80.7922 17.8643C79.851 22.4652 79.5748 27.1756 79.972 31.8537C79.972 31.8537 71.74 43.0913 71.1182 47.833" stroke="#0072BA" stroke-width="1.4" stroke-miterlimit="10"/>
<path d="M81.5569 36.5717L81.8428 51.0346C81.8428 51.0346 74.211 49.307 71.3428 46.8048" stroke="#0072BA" stroke-width="1.4" stroke-miterlimit="10"/>
<path d="M79.9726 36.5717C79.9726 36.5717 77.9729 43.9366 77.8994 49.9329" stroke="#0072BA" stroke-width="1.4" stroke-miterlimit="10"/>
<path d="M78.9358 36.5717C78.9358 36.5717 75.3005 43.679 74.1846 48.5173" stroke="#0072BA" stroke-width="1.4" stroke-miterlimit="10"/>
<path d="M100.612 25.9964C100.612 25.9964 91.2401 32.5519 79.9707 31.8566" stroke="#0072BA" stroke-width="1.4" stroke-miterlimit="10"/>
<path d="M74.1846 64.1092L76.5856 69.9254L78.9358 66.4314L75.8442 60.1318L74.1846 64.1092Z" fill="#0072B9"/>
<path d="M59.4355 46.5749C59.4355 46.5749 65.8079 43.5562 66.0855 42.5447" stroke="#C5C7C6" stroke-width="1.4" stroke-miterlimit="10"/>
<path d="M59.4355 52.2939C59.4355 52.2939 63.5486 50.7214 64.4592 50.0614" stroke="#C5C7C6" stroke-width="1.4" stroke-miterlimit="10"/>
<path d="M59.4299 49.6746C59.4299 49.6746 54.4785 47.3964 53.5674 46.737" stroke="#C5C7C6" stroke-width="1.4" stroke-miterlimit="10"/>
<path d="M59.4355 49.4344C59.4355 49.4344 64.2492 47.2343 65.1604 46.5749" stroke="#C5C7C6" stroke-width="1.4" stroke-miterlimit="10"/>
<path d="M59.4346 54.9779L63.9303 53.0482" stroke="#C5C7C6" stroke-width="1.4" stroke-miterlimit="10"/>
<path d="M59.4289 42.6797L59.3438 57.908" stroke="#C5C7C6" stroke-width="1.4" stroke-miterlimit="10"/>
<path d="M37.1328 90.9683C37.1328 90.9683 44.0745 86.5451 47.3411 80.9789" stroke="#C5C7C6" stroke-width="1.4" stroke-miterlimit="10"/>
<path d="M40.8799 94.0866C44.0647 90.0395 46.88 85.7188 49.2921 81.1758" stroke="#C5C7C6" stroke-width="1.4" stroke-miterlimit="10"/>
<path d="M44.3066 96.5599L50.1481 82.5676" stroke="#C5C7C6" stroke-width="1.4" stroke-miterlimit="10"/>
<path d="M46.1729 100.434L51.1615 84.1655" stroke="#C5C7C6" stroke-width="1.4" stroke-miterlimit="10"/>
<path d="M50.2963 106.171C50.2963 106.171 49.9778 94.2156 52.4855 86.2081" stroke="#C5C7C6" stroke-width="1.4" stroke-miterlimit="10"/>
<path d="M81.4915 90.959C81.4915 90.959 74.5499 86.5358 71.2832 80.9697" stroke="#C5C7C6" stroke-width="1.4" stroke-miterlimit="10"/>
<path d="M77.7433 94.0779C74.5584 90.0308 71.7432 85.7101 69.3311 81.1671" stroke="#C5C7C6" stroke-width="1.4" stroke-miterlimit="10"/>
<path d="M74.3171 96.5512L68.4756 82.5589" stroke="#C5C7C6" stroke-width="1.4" stroke-miterlimit="10"/>
<path d="M72.4516 100.425L67.4629 84.1562" stroke="#C5C7C6" stroke-width="1.4" stroke-miterlimit="10"/>
<path d="M68.3269 106.162C68.3269 106.162 68.6454 94.207 66.1377 86.1994" stroke="#C5C7C6" stroke-width="1.4" stroke-miterlimit="10"/>
</g>
<defs>
<clipPath id="clip0_103_588">
<rect width="119" height="130" fill="white"/>
</clipPath>
</defs>
</svg>
